<svg id="Layer_1" data-name="Layer 1" xmlns="http://www.w3.org/2000/svg" xmlns:xlink="http://www.w3.org/1999/xlink" viewBox="0 0 230 55"><defs><style>.cls-1{fill:none;}.cls-2{clip-path:url(#clip-path);}.cls-3{fill:#010101;}</style><clipPath id="clip-path"><rect class="cls-1" x="13.7" y="14.36" width="202.59" height="26.27"/></clipPath></defs><g class="cls-2"><path class="cls-3" d="M26.25,40.6c-7.48,0-12.55-5.32-12.55-13.12S18.81,14.36,26,14.36c6.26,0,10.24,3.09,11.57,8.42a.22.22,0,0,1-.21.28H32.32a.36.36,0,0,1-.36-.28c-.82-2.81-2.8-4.25-5.89-4.25-4.39,0-6.73,3.45-6.73,9s2.41,8.87,6.87,8.87c3.6,0,5.93-2.08,6.08-6H26a.31.31,0,0,1-.29-.29V26.69A.31.31,0,0,1,26,26.4H37.86a.31.31,0,0,1,.28.29C38.25,36,34,40.6,26.25,40.6"/><path class="cls-3" d="M41.46,40.06a.3.3,0,0,1-.29-.29l.11-12.29-.11-12.29a.3.3,0,0,1,.29-.29h4.89a.3.3,0,0,1,.28.29l-.11,12.29.11,12.29a.3.3,0,0,1-.28.29Z"/><path class="cls-3" d="M55.23,28.06V39.78a.31.31,0,0,1-.29.28H50.41a.3.3,0,0,1-.29-.28l.07-12.3-.07-12.29a.31.31,0,0,1,.29-.29h6a.5.5,0,0,1,.43.25L67,33l-.22-4.82V15.19a.32.32,0,0,1,.29-.29h4.53a.32.32,0,0,1,.29.29l-.08,12.29.08,12.3a.31.31,0,0,1-.29.28H65.33a.53.53,0,0,1-.44-.25L55,22.16l0,.69Z"/><path class="cls-3" d="M87.44,36.4c4.53,0,7-3.35,7-8.84s-2.48-9-7.08-9-7,3.38-7,9,2.55,8.84,7.08,8.84m0,4.2c-7.69,0-12.68-5.35-12.68-13,0-8,5-13.2,12.68-13.2s12.73,5.07,12.73,13.2c0,7.69-5,13-12.73,13"/><path class="cls-3" d="M122,18.89h-5.25l0,7.84h5.43c2.3,0,4.28-1.08,4.28-3.81s-1.62-4-4.42-4m.79,15.57-2.48-3.74h-3.6l.07,9.06a.3.3,0,0,1-.28.28H111.6a.3.3,0,0,1-.28-.28l.07-12.3-.07-12.29a.31.31,0,0,1,.28-.29h10.21c6.29,0,9.92,2.66,9.92,7.91,0,3.7-2,6.25-5.61,7.33l6.29,9.67a.16.16,0,0,1-.14.25h-5.79a.5.5,0,0,1-.43-.25Z"/><path class="cls-3" d="M146.65,36.4c4.53,0,7-3.35,7-8.84s-2.48-9-7.08-9-7.05,3.38-7.05,9,2.55,8.84,7.08,8.84m0,4.2c-7.69,0-12.69-5.35-12.69-13,0-8,5-13.2,12.69-13.2s12.72,5.07,12.72,13.2c0,7.69-5,13-12.72,13"/><path class="cls-3" d="M173,40.64c-6.62,0-11.18-2.81-11.4-8.77a.31.31,0,0,1,.29-.29H167a.34.34,0,0,1,.32.29c.33,2.8,1.62,4.67,5.75,4.67,3.28,0,5.07-1,5.07-3.34,0-5.68-16.07-1.19-16.07-11.18,0-4.71,3.67-7.66,10.11-7.66,5.89,0,9.95,2.3,10.71,7.69a.26.26,0,0,1-.25.29H177.5a.34.34,0,0,1-.32-.29c-.26-2.3-2.09-3.55-5.18-3.55-2.59,0-4.46.9-4.46,3,0,5.35,16.14,1,16.14,11,0,5.32-4.1,8.2-10.67,8.2"/><path class="cls-3" d="M197.24,40.64c-6.61,0-11.18-2.81-11.39-8.77a.3.3,0,0,1,.28-.29h5.14a.35.35,0,0,1,.33.29c.32,2.8,1.62,4.67,5.75,4.67,3.27,0,5.07-1,5.07-3.34,0-5.68-16.07-1.19-16.07-11.18,0-4.71,3.67-7.66,10.1-7.66,5.89,0,10,2.3,10.71,7.69a.25.25,0,0,1-.25.29h-5.17a.35.35,0,0,1-.33-.29c-.25-2.3-2.09-3.55-5.18-3.55-2.58,0-4.45.9-4.45,3,0,5.35,16.13,1,16.13,11,0,5.32-4.09,8.2-10.67,8.2"/><path class="cls-3" d="M211.12,40.06a.31.31,0,0,1-.29-.29l.11-12.29-.11-12.29a.31.31,0,0,1,.29-.29H216a.31.31,0,0,1,.29.29l-.11,12.29.11,12.29a.31.31,0,0,1-.29.29Z"/></g></svg>